<svg width="40" height="40" viewBox="0 0 40 40" fill="none" xmlns="http://www.w3.org/2000/svg">
<path d="M13.8851 40C15.5085 40 16.8244 38.6306 16.8244 36.9413C16.8244 35.252 15.5085 33.8825 13.8851 33.8825C12.2618 33.8825 10.9458 35.252 10.9458 36.9413C10.9458 38.6306 12.2618 40 13.8851 40Z" fill="#C59332"/>
<path d="M31.7429 40C33.3663 40 34.6822 38.6306 34.6822 36.9413C34.6822 35.252 33.3663 33.8825 31.7429 33.8825C30.1196 33.8825 28.8036 35.252 28.8036 36.9413C28.8036 38.6306 30.1196 40 31.7429 40Z" fill="#C59332"/>
<path d="M39.6862 3.79869C39.5647 3.64275 39.4114 3.51676 39.2375 3.42979C39.0636 3.34282 38.8733 3.29703 38.6804 3.2957H11.482L12.3311 6.01459H36.969L33.481 22.3279H13.8857L7.91562 2.65676C7.85105 2.44803 7.73891 2.25866 7.58877 2.10479C7.43864 1.95092 7.25497 1.83713 7.05342 1.77313L1.69736 0.0602277C1.53267 0.00756299 1.35962 -0.0108295 1.1881 0.0061003C1.01658 0.0230301 0.849938 0.0749506 0.697698 0.158897C0.390236 0.328436 0.160086 0.618133 0.0578778 0.964257C-0.0443301 1.31038 -0.0102234 1.68458 0.152695 2.00454C0.315613 2.32449 0.593997 2.564 0.926606 2.67036L5.61643 4.16574L11.6126 23.8777L9.47019 25.6993L9.30036 25.876C8.77042 26.5116 8.47004 27.3195 8.45096 28.1607C8.43189 29.0019 8.69531 29.8237 9.19585 30.4846C9.55191 30.9352 10.0044 31.2928 10.517 31.5288C11.0297 31.7649 11.5883 31.8728 12.1482 31.844H33.9513C34.2978 31.844 34.6301 31.7008 34.8751 31.4458C35.1201 31.1909 35.2577 30.8451 35.2577 30.4846C35.2577 30.124 35.1201 29.7782 34.8751 29.5233C34.6301 29.2683 34.2978 29.1251 33.9513 29.1251H11.9392C11.7888 29.1198 11.6422 29.0741 11.5137 28.9926C11.3851 28.9111 11.279 28.7965 11.2054 28.6598C11.1319 28.5232 11.0934 28.3691 11.0938 28.2125C11.0942 28.0558 11.1334 27.9019 11.2076 27.7657L14.356 25.0468H34.5261C34.8281 25.0545 35.1233 24.953 35.3615 24.7597C35.5997 24.5663 35.7661 24.2931 35.8325 23.9864L39.9736 4.95422C40.0134 4.75155 40.0081 4.54212 39.9583 4.34188C39.9085 4.14163 39.8155 3.95586 39.6862 3.79869Z" fill="#C59332"/>
</svg>
