<svg width="45" height="40" viewBox="0 0 45 40" fill="none" xmlns="http://www.w3.org/2000/svg">
<path d="M43.93 8.19721C43.244 6.59311 42.2549 5.13949 41.0181 3.91773C39.7803 2.69232 38.3209 1.7185 36.7193 1.04923C35.0586 0.352489 33.2773 -0.00414399 31.479 3.63284e-05C28.956 3.63284e-05 26.4945 0.697778 24.3554 2.01573C23.8436 2.33101 23.3574 2.6773 22.8969 3.05459C22.4363 2.6773 21.9501 2.33101 21.4384 2.01573C19.2992 0.697778 16.8377 3.63284e-05 14.3147 3.63284e-05C12.498 3.63284e-05 10.7376 0.351491 9.07437 1.04923C7.46746 1.72113 6.01919 2.68763 4.77563 3.91773C3.53717 5.13811 2.54785 6.59207 1.86375 8.19721C1.15241 9.86662 0.789062 11.6394 0.789062 13.4639C0.789062 15.185 1.13706 16.9784 1.82792 18.8029C2.40621 20.3276 3.23525 21.9091 4.29458 23.5062C5.97313 26.0335 8.28115 28.6695 11.147 31.3415C15.8961 35.7709 20.5991 38.8306 20.7987 38.9547L22.0115 39.7403C22.5489 40.0866 23.2397 40.0866 23.7771 39.7403L24.9899 38.9547C25.1895 38.8255 29.8874 35.7709 34.6416 31.3415C37.5074 28.6695 39.8155 26.0335 41.494 23.5062C42.5533 21.9091 43.3875 20.3276 43.9607 18.8029C44.6515 16.9784 44.9995 15.185 44.9995 13.4639C45.0047 11.6394 44.6413 9.86662 43.93 8.19721Z" fill="#C59332"/>
</svg>
